HIERARCHY
ROOT newVegas:Hips
{
	OFFSET 0.000000 96.479958 0.000000
	CHANNELS 6 Xposition Yposition Zposition Xrotation Yrotation Zrotation
	JOINT newVegas:Pelvis
	{
		OFFSET 0.000000 0.000000 0.000000
		CHANNELS 3 Xrotation Yrotation Zrotation
		JOINT newVegas:LeftUpLeg
		{
			OFFSET 18.735201 -5.666702 -4.541200
			CHANNELS 3 Xrotation Yrotation Zrotation
			JOINT newVegas:LeftLeg
			{
				OFFSET -0.021200 -31.938179 0.493100
				CHANNELS 3 Xrotation Yrotation Zrotation
				JOINT newVegas:LeftFoot
				{
					OFFSET 0.021200 -31.938179 -4.336299
					CHANNELS 3 Xrotation Yrotation Zrotation
					JOINT newVegas:LeftToeBase
					{
						OFFSET 0.943001 -26.722000 15.023500
						CHANNELS 3 Xrotation Yrotation Zrotation
						End Site
						{
							OFFSET 0.000000 30.670183 0.000000
						}
					}
				}
				JOINT newVegas:Left_PantLeg
				{
					OFFSET 0.663870 -9.044666 -1.108900
					CHANNELS 3 Xrotation Yrotation Zrotation
					End Site
					{
						OFFSET 1.415995 20.635357 0.000000
					}
				}
			}
		}
		JOINT newVegas:RightUpLeg
		{
			OFFSET -18.735201 -5.666702 -4.541200
			CHANNELS 3 Xrotation Yrotation Zrotation
			JOINT newVegas:RightLeg
			{
				OFFSET 0.018946 -31.938133 0.493100
				CHANNELS 3 Xrotation Yrotation Zrotation
				JOINT newVegas:RightFoot
				{
					OFFSET -0.018946 -31.938126 -4.336299
					CHANNELS 3 Xrotation Yrotation Zrotation
					JOINT newVegas:RightToeBase
					{
						OFFSET -0.943001 -26.722004 15.023500
						CHANNELS 3 Xrotation Yrotation Zrotation
						End Site
						{
							OFFSET 0.000000 30.670187 0.000000
						}
					}
				}
				JOINT newVegas:Right_PantLeg
				{
					OFFSET -0.661674 -9.044716 -1.108900
					CHANNELS 3 Xrotation Yrotation Zrotation
					End Site
					{
						OFFSET -1.415958 20.635269 0.000000
					}
				}
			}
		}
	}
	JOINT newVegas:Spine
	{
		OFFSET 0.000000 10.199997 -0.299500
		CHANNELS 3 Xrotation Yrotation Zrotation
		JOINT newVegas:Spine1
		{
			OFFSET 0.000000 11.900002 -1.516600
			CHANNELS 3 Xrotation Yrotation Zrotation
			JOINT newVegas:Spine2
			{
				OFFSET 0.000000 13.600006 -2.842500
				CHANNELS 3 Xrotation Yrotation Zrotation
				JOINT newVegas:Neck
				{
					OFFSET 0.000000 9.624100 -2.890100
					CHANNELS 3 Xrotation Yrotation Zrotation
					JOINT newVegas:Head
					{
						OFFSET 0.000000 14.068802 -1.351900
						CHANNELS 3 Xrotation Yrotation Zrotation
						JOINT newVegas:Hair_Back
						{
							OFFSET 0.000000 3.231903 -17.524799
							CHANNELS 3 Xrotation Yrotation Zrotation
							End Site
							{
								OFFSET 0.000000 19.849884 0.000000
							}
						}
						JOINT newVegas:Hair_Front
						{
							OFFSET 0.000000 31.260406 4.573800
							CHANNELS 3 Xrotation Yrotation Zrotation
							JOINT newVegas:Hair_Front1
							{
								OFFSET 0.000000 2.284103 11.993300
								CHANNELS 3 Xrotation Yrotation Zrotation
								JOINT newVegas:Hair_Front2
								{
									OFFSET 0.000000 2.284103 11.993300
									CHANNELS 3 Xrotation Yrotation Zrotation
									End Site
									{
										OFFSET 0.000000 12.208862 0.000000
									}
								}
							}
						}
						JOINT newVegas:Jowel
						{
							OFFSET 0.000000 -7.458206 6.864100
							CHANNELS 3 Xrotation Yrotation Zrotation
							End Site
							{
								OFFSET 0.000000 19.849884 0.000000
							}
						}
					}
				}
				JOINT newVegas:LeftShoulder
				{
					OFFSET 15.263000 10.923401 -0.547700
					CHANNELS 3 Xrotation Yrotation Zrotation
					JOINT newVegas:LeftArm
					{
						OFFSET 25.438599 -2.830597 -13.032500
						CHANNELS 3 Xrotation Yrotation Zrotation
						JOINT newVegas:LeftForeArm
						{
							OFFSET 29.960503 0.000000 0.000000
							CHANNELS 3 Xrotation Yrotation Zrotation
							JOINT newVegas:LeftHand
							{
								OFFSET 27.849251 0.000000 0.000000
								CHANNELS 3 Xrotation Yrotation Zrotation
								JOINT newVegas:LeftHandThumb1
								{
									OFFSET 4.487587 -3.305161 6.305391
									CHANNELS 3 Xrotation Yrotation Zrotation
									JOINT newVegas:LeftHandThumb2
									{
										OFFSET 5.480453 -3.164139 3.164143
										CHANNELS 3 Xrotation Yrotation Zrotation
										JOINT newVegas:LeftHandThumb3
										{
											OFFSET 5.159721 -2.978973 2.978967
											CHANNELS 3 Xrotation Yrotation Zrotation
											End Site
											{
												OFFSET 2.494507 5.926697 1.738678
											}
										}
									}
								}
								JOINT newVegas:LeftHandIndex1
								{
									OFFSET 18.578728 -0.527832 5.208049
									CHANNELS 3 Xrotation Yrotation Zrotation
									JOINT newVegas:LeftHandIndex2
									{
										OFFSET 3.192009 0.000000 0.000000
										CHANNELS 3 Xrotation Yrotation Zrotation
										JOINT newVegas:LeftHandIndex3
										{
											OFFSET 3.835129 0.000000 0.000000
											CHANNELS 3 Xrotation Yrotation Zrotation
											End Site
											{
												OFFSET -0.034599 3.816971 0.371180
											}
										}
									}
								}
								JOINT newVegas:LeftHandMiddle1
								{
									OFFSET 18.476105 0.000000 0.000000
									CHANNELS 3 Xrotation Yrotation Zrotation
									JOINT newVegas:LeftHandMiddle2
									{
										OFFSET 3.324875 0.000000 0.000000
										CHANNELS 3 Xrotation Yrotation Zrotation
										JOINT newVegas:LeftHandMiddle3
										{
											OFFSET 4.596550 0.000000 0.000000
											CHANNELS 3 Xrotation Yrotation Zrotation
											End Site
											{
												OFFSET 0.057701 4.578827 0.399218
											}
										}
									}
								}
								JOINT newVegas:LeftHandRing1
								{
									OFFSET 17.732719 0.121887 -4.201567
									CHANNELS 3 Xrotation Yrotation Zrotation
									JOINT newVegas:LeftHandRing2
									{
										OFFSET 2.733170 0.000000 0.000000
										CHANNELS 3 Xrotation Yrotation Zrotation
										JOINT newVegas:LeftHandRing3
										{
											OFFSET 3.178268 0.000000 0.000000
											CHANNELS 3 Xrotation Yrotation Zrotation
											End Site
											{
												OFFSET 0.119102 3.170624 0.185394
											}
										}
									}
								}
								JOINT newVegas:LeftHandPinky1
								{
									OFFSET 15.989624 -0.606689 -7.535461
									CHANNELS 3 Xrotation Yrotation Zrotation
									JOINT newVegas:LeftHandPinky2
									{
										OFFSET 2.538986 0.000000 0.000000
										CHANNELS 3 Xrotation Yrotation Zrotation
										JOINT newVegas:LeftHandPinky3
										{
											OFFSET 2.593102 0.000000 0.000000
											CHANNELS 3 Xrotation Yrotation Zrotation
											End Site
											{
												OFFSET -0.150902 2.584198 0.152708
											}
										}
									}
								}
							}
							JOINT newVegas:Left_Sleeve
							{
								OFFSET 0.267448 -0.649796 0.577675
								CHANNELS 3 Xrotation Yrotation Zrotation
								End Site
								{
									OFFSET 0.000000 15.991241 0.000000
								}
							}
							JOINT newVegas:Left_CapeC
							{
								OFFSET 15.715958 -8.608795 -6.935905
								CHANNELS 3 Xrotation Yrotation Zrotation
								JOINT newVegas:Left_CapeC1
								{
									OFFSET 0.000000 -8.688499 0.000000
									CHANNELS 3 Xrotation Yrotation Zrotation
									End Site
									{
										OFFSET 0.000000 8.688499 0.000000
									}
								}
							}
						}
						JOINT newVegas:Left_CapeB
						{
							OFFSET 26.118385 -8.608795 -7.079235
							CHANNELS 3 Xrotation Yrotation Zrotation
							JOINT newVegas:Left_CapeB1
							{
								OFFSET 0.000000 -8.688499 0.000000
								CHANNELS 3 Xrotation Yrotation Zrotation
								End Site
								{
									OFFSET 0.000000 8.688499 0.000000
								}
							}
						}
						JOINT newVegas:Left_CapeA
						{
							OFFSET 5.115639 -8.608795 -10.395809
							CHANNELS 3 Xrotation Yrotation Zrotation
							JOINT newVegas:Left_CapeA1
							{
								OFFSET 0.000000 -8.688499 0.000000
								CHANNELS 3 Xrotation Yrotation Zrotation
								End Site
								{
									OFFSET 0.000000 8.688499 0.000000
								}
							}
						}
					}
				}
				JOINT newVegas:RightShoulder
				{
					OFFSET -15.263000 10.923401 -0.547700
					CHANNELS 3 Xrotation Yrotation Zrotation
					JOINT newVegas:RightArm
					{
						OFFSET -25.438599 -2.830597 -13.032500
						CHANNELS 3 Xrotation Yrotation Zrotation
						JOINT newVegas:RightForeArm
						{
							OFFSET -29.960503 0.000000 0.000000
							CHANNELS 3 Xrotation Yrotation Zrotation
							JOINT newVegas:RightHand
							{
								OFFSET -27.849251 0.000000 0.000000
								CHANNELS 3 Xrotation Yrotation Zrotation
								JOINT newVegas:RightHandThumb1
								{
									OFFSET -4.487587 -3.305161 6.305391
									CHANNELS 3 Xrotation Yrotation Zrotation
									JOINT newVegas:RightHandThumb2
									{
										OFFSET -5.480453 -3.164139 3.164143
										CHANNELS 3 Xrotation Yrotation Zrotation
										JOINT newVegas:RightHandThumb3
										{
											OFFSET -5.159721 -2.978973 2.978967
											CHANNELS 3 Xrotation Yrotation Zrotation
											End Site
											{
												OFFSET -2.494507 5.926697 1.738678
											}
										}
									}
								}
								JOINT newVegas:RightHandIndex1
								{
									OFFSET -18.578728 -0.527832 5.208049
									CHANNELS 3 Xrotation Yrotation Zrotation
									JOINT newVegas:RightHandIndex2
									{
										OFFSET -3.192009 0.000000 0.000000
										CHANNELS 3 Xrotation Yrotation Zrotation
										JOINT newVegas:RightHandIndex3
										{
											OFFSET -3.835129 0.000000 0.000000
											CHANNELS 3 Xrotation Yrotation Zrotation
											End Site
											{
												OFFSET 0.034599 3.816971 0.371180
											}
										}
									}
								}
								JOINT newVegas:RightHandMiddle1
								{
									OFFSET -18.476105 0.000000 0.000000
									CHANNELS 3 Xrotation Yrotation Zrotation
									JOINT newVegas:RightHandMiddle2
									{
										OFFSET -3.324875 0.000000 0.000000
										CHANNELS 3 Xrotation Yrotation Zrotation
										JOINT newVegas:RightHandMiddle3
										{
											OFFSET -4.596550 0.000000 0.000000
											CHANNELS 3 Xrotation Yrotation Zrotation
											End Site
											{
												OFFSET -0.057701 4.578827 0.399218
											}
										}
									}
								}
								JOINT newVegas:RightHandRing1
								{
									OFFSET -17.732719 0.121887 -4.201567
									CHANNELS 3 Xrotation Yrotation Zrotation
									JOINT newVegas:RightHandRing2
									{
										OFFSET -2.733170 0.000000 0.000000
										CHANNELS 3 Xrotation Yrotation Zrotation
										JOINT newVegas:RightHandRing3
										{
											OFFSET -3.178268 0.000000 0.000000
											CHANNELS 3 Xrotation Yrotation Zrotation
											End Site
											{
												OFFSET -0.119102 3.170624 0.185394
											}
										}
									}
								}
								JOINT newVegas:RightHandPinky1
								{
									OFFSET -15.989624 -0.606689 -7.535461
									CHANNELS 3 Xrotation Yrotation Zrotation
									JOINT newVegas:RightHandPinky2
									{
										OFFSET -2.538986 0.000000 0.000000
										CHANNELS 3 Xrotation Yrotation Zrotation
										JOINT newVegas:RightHandPinky3
										{
											OFFSET -2.593102 0.000000 0.000000
											CHANNELS 3 Xrotation Yrotation Zrotation
											End Site
											{
												OFFSET 0.150902 2.584198 0.152708
											}
										}
									}
								}
							}
							JOINT newVegas:Right_CapeC
							{
								OFFSET -15.715958 -8.608795 -6.935905
								CHANNELS 3 Xrotation Yrotation Zrotation
								JOINT newVegas:Right_CapeC1
								{
									OFFSET 0.000000 -8.688499 0.000000
									CHANNELS 3 Xrotation Yrotation Zrotation
									End Site
									{
										OFFSET 0.000000 8.688499 0.000000
									}
								}
							}
							JOINT newVegas:Right_Sleeve
							{
								OFFSET -0.267448 -0.649994 0.577675
								CHANNELS 3 Xrotation Yrotation Zrotation
								End Site
								{
									OFFSET 0.000000 15.991302 0.000000
								}
							}
						}
						JOINT newVegas:Right_CapeA
						{
							OFFSET -5.115540 -8.608795 -10.395824
							CHANNELS 3 Xrotation Yrotation Zrotation
							JOINT newVegas:Right_CapeA1
							{
								OFFSET 0.000000 -8.688499 0.000000
								CHANNELS 3 Xrotation Yrotation Zrotation
								End Site
								{
									OFFSET 0.000000 8.688499 0.000000
								}
							}
						}
						JOINT newVegas:Right_CapeB
						{
							OFFSET -26.118187 -8.608795 -7.079266
							CHANNELS 3 Xrotation Yrotation Zrotation
							JOINT newVegas:Right_CapeB1
							{
								OFFSET 0.000000 -8.688499 0.000000
								CHANNELS 3 Xrotation Yrotation Zrotation
								End Site
								{
									OFFSET 0.000000 8.688499 0.000000
								}
							}
						}
					}
				}
				JOINT newVegas:Left_Collar
				{
					OFFSET 18.625099 8.655502 8.828100
					CHANNELS 3 Xrotation Yrotation Zrotation
					JOINT newVegas:Left_Collar1
					{
						OFFSET 14.783401 10.540405 -1.259500
						CHANNELS 3 Xrotation Yrotation Zrotation
						End Site
						{
							OFFSET 0.000000 18.199875 0.000000
						}
					}
				}
				JOINT newVegas:Collar_Back
				{
					OFFSET 0.000000 15.630707 -20.132601
					CHANNELS 3 Xrotation Yrotation Zrotation
					End Site
					{
						OFFSET 0.000000 22.523010 0.000000
					}
				}
				JOINT newVegas:Left_Peck
				{
					OFFSET 17.239599 -5.132599 25.482599
					CHANNELS 3 Xrotation Yrotation Zrotation
					End Site
					{
						OFFSET 0.000000 22.523010 0.000000
					}
				}
				JOINT newVegas:Right_Peck
				{
					OFFSET -17.239599 -5.132202 25.482599
					CHANNELS 3 Xrotation Yrotation Zrotation
					End Site
					{
						OFFSET 0.000000 22.523010 0.000000
					}
				}
				JOINT newVegas:Right_Collar
				{
					OFFSET -18.625099 8.655792 8.828100
					CHANNELS 3 Xrotation Yrotation Zrotation
					JOINT newVegas:Right_Collar1
					{
						OFFSET -14.783401 10.539993 -1.259500
						CHANNELS 3 Xrotation Yrotation Zrotation
						End Site
						{
							OFFSET 0.000000 18.199631 0.000000
						}
					}
				}
			}
		}
		JOINT newVegas:Belly
		{
			OFFSET 0.000000 -6.540398 9.014299
			CHANNELS 3 Xrotation Yrotation Zrotation
			End Site
			{
				OFFSET 0.000000 11.566666 0.000000
			}
		}
	}
	JOINT newVegas:ElvisFacialAnim_Joint
	{
		OFFSET 1.000000 -95.330101 -8.825800
		CHANNELS 3 Xrotation Yrotation Zrotation
		End Site
		{
			OFFSET 0.000000 35.315800 0.000000
		}
	}
}
MOTION
Frames: 4
Frame Time: 0.033333
-2.529503 83.444214 1.048891 9.511085 -61.528175 10.139692 -0.000000 -0.000001 -0.000000 -41.485616 6.898396 29.341622 42.476380 -8.855469 1.133462 -6.285691 -1.073339 -21.274702 -0.000000 0.000000 0.000000 0.000000 -0.000002 0.000000 -31.349243 -15.813432 -39.178115 41.611524 6.255672 -4.187890 -15.613013 -2.030436 28.893148 -0.000000 -0.000000 -0.000000 -0.000000 -0.000000 -0.000002 15.063788 -0.418059 -4.284001 5.872407 0.563923 -2.798210 5.868714 0.648185 -2.860163 -0.718911 0.306356 0.742058 -0.718886 0.306349 0.742049 -0.000000 0.000001 -0.000000 -0.718815 0.306358 0.742053 -0.718957 0.306347 0.742057 -0.000003 -0.000002 0.000001 -0.000000 0.000001 -0.000001 1.828099 -3.192691 -12.271568 -39.387416 26.350496 -34.911102 0.429371 -46.808475 0.416184 -10.315072 -0.130720 0.363008 40.109948 -15.297172 -0.360487 5.639803 28.097904 11.338839 0.000003 -0.000002 -0.000005 6.882254 2.840061 -61.140411 8.247984 7.640054 -89.897871 -0.000004 -0.000001 -0.000001 -2.345513 4.688863 -62.655210 8.754126 9.897060 -87.051301 0.000003 -0.000000 -0.000002 -9.042453 10.045657 -60.766192 8.524120 9.508810 -66.893049 -0.000002 0.000001 -0.000002 -17.946896 14.754998 -51.485867 8.868420 8.667040 -84.811989 -0.000002 -0.000003 -0.000001 0.000000 -0.000005 0.000002 0.000000 -0.000005 0.000002 -0.000001 -0.000004 0.000002 -0.000001 -0.000001 0.000004 -0.000000 -0.000002 0.000001 -0.000001 -0.000001 0.000004 -0.000002 -0.000001 0.000003 0.632604 7.257349 8.700390 7.936020 -9.680155 53.429903 -22.867439 36.194689 17.955440 -27.369934 10.432883 -17.813545 -2.346173 -6.100555 10.731431 2.364041 -23.806283 -8.771062 0.000001 -0.000001 0.000001 -0.054748 0.532105 0.738736 0.019776 -0.087316 5.078497 -0.000000 -0.000001 0.000001 0.348262 -5.918525 2.583836 1.432618 -4.204215 24.052115 0.000002 0.000002 0.000001 1.205815 -11.756084 4.154778 1.794853 -3.771848 26.865391 -0.000000 0.000002 -0.000000 2.126196 -19.166870 11.319976 3.354769 -2.122236 18.828540 -0.000000 -0.000002 -0.000000 -0.000004 0.000001 -0.000001 -0.000004 -0.000001 -0.000003 -0.000004 0.000000 -0.000001 -0.000001 -0.000001 -0.000002 -0.000001 0.000000 -0.000003 -0.000001 -0.000001 -0.000002 -0.000001 -0.000000 -0.000003 -0.000000 0.000001 0.000000 -0.000000 0.000001 0.000000 -0.000000 0.000001 0.000000 -0.000000 0.000001 0.000000 -0.000000 0.000001 0.000000 -0.000000 0.000001 0.000000 -0.000000 0.000001 0.000000 -0.000002 0.000000 -0.000000 -0.000000 -0.000001 -0.000000 
-4.622824 85.902084 6.138010 15.217832 -49.228445 13.962150 0.000000 0.000001 -0.000000 -43.995267 4.311513 21.193539 37.695893 -5.146970 -0.625603 -2.693833 -0.598550 -16.420241 0.000000 0.000000 0.000000 -0.000000 0.000004 0.000002 -20.673273 -14.899127 -33.160077 35.034359 -12.292933 -3.095143 -8.476949 -5.281148 27.384812 0.000000 -0.000000 -0.000000 0.000000 0.000000 0.000000 15.188015 -1.528887 -5.212570 1.878277 -0.779180 -2.005971 1.887254 -0.677743 -2.054989 -3.303161 1.436893 0.061076 -3.303183 1.436897 0.061077 -0.000001 0.000000 0.000002 -3.303077 1.436879 0.061073 -3.303081 1.436914 0.061068 -0.000001 -0.000002 0.000000 -0.000001 0.000000 0.000000 2.088869 -4.833098 -11.579501 -46.377801 25.618243 -33.185273 29.988687 -42.477544 22.940968 -2.614125 -10.971300 9.233242 40.109951 -15.297172 -0.360496 5.639800 28.097899 11.338845 -0.000000 0.000000 -0.000004 6.882260 2.840065 -61.140418 8.247985 7.640052 -89.897871 -0.000001 -0.000002 0.000001 -2.345513 4.688865 -62.655210 8.754125 9.897064 -87.051294 0.000001 0.000000 0.000000 -9.042455 10.045660 -60.766199 8.524109 9.508812 -66.893049 0.000001 -0.000004 0.000000 -17.946901 14.755000 -51.485870 8.868418 8.667044 -84.811989 -0.000001 -0.000007 0.000001 -0.000002 0.000000 -0.000001 -0.000002 0.000000 -0.000001 -0.000003 0.000000 -0.000001 -0.000001 -0.000002 0.000004 -0.000001 -0.000002 0.000001 -0.000001 -0.000002 0.000004 -0.000000 -0.000002 0.000003 1.622756 12.519610 15.575270 8.820098 -10.618531 42.015188 0.898997 41.092658 0.108748 -11.404649 -4.621539 5.158441 -2.336123 -6.057325 10.657175 2.356342 -23.639686 -8.717173 0.000000 -0.000001 0.000001 -0.056372 0.525804 1.059085 0.018593 -0.092851 5.362175 -0.000001 0.000001 -0.000001 0.348878 -5.878328 2.887265 1.422412 -4.180931 24.207690 -0.000004 0.000000 -0.000000 1.206046 -11.677276 4.448573 1.777800 -3.755839 27.000142 -0.000001 0.000001 -0.000001 2.099058 -19.043751 11.551812 3.334565 -2.123140 19.020064 0.000005 -0.000000 0.000002 0.000002 -0.000001 -0.000002 0.000003 -0.000000 0.000000 0.000002 -0.000001 -0.000002 -0.000003 0.000003 -0.000001 -0.000002 0.000003 -0.000001 -0.000003 0.000003 -0.000001 -0.000002 0.000003 -0.000002 -0.000001 -0.000001 0.000002 -0.000001 -0.000001 0.000002 -0.000001 -0.000001 0.000002 -0.000001 -0.000001 0.000002 -0.000001 -0.000001 0.000002 -0.000001 -0.000001 0.000002 -0.000001 -0.000001 0.000002 0.000002 0.000003 -0.000000 0.000000 0.000001 -0.000000 
-5.907901 86.276329 13.266346 23.966316 -44.065194 14.050802 -0.000001 -0.000000 0.000001 -59.310692 2.122855 26.755494 57.068952 -1.901959 -7.487970 -4.103432 0.159691 -13.034088 -0.000000 0.000002 -0.000001 -0.000000 0.000002 0.000000 -17.606059 -8.538586 -24.090670 26.980186 -29.051192 -2.550843 9.130853 -2.830655 21.763402 0.000002 -0.000002 -0.000000 -0.000000 0.000000 0.000001 14.707708 -0.887505 -5.324955 -3.554616 0.573985 -0.356655 -3.568287 0.645832 -0.433185 -5.676763 1.945594 1.500754 -5.676767 1.945575 1.500756 0.000001 0.000002 0.000000 -5.676687 1.945578 1.500754 -5.676698 1.945571 1.500751 0.000000 0.000003 -0.000000 0.000001 0.000002 -0.000000 2.954315 -3.885662 -3.748054 -61.181590 18.957569 -25.087597 43.969117 -34.040000 34.442250 4.485563 -11.824530 11.190479 40.109951 -15.297172 -0.360494 5.639798 28.097906 11.338847 0.000001 0.000001 -0.000001 6.882257 2.840065 -61.140418 8.247987 7.640054 -89.897871 -0.000000 -0.000000 0.000003 -2.345514 4.688865 -62.655217 8.754125 9.897064 -87.051294 -0.000001 0.000001 -0.000002 -9.042456 10.045657 -60.766199 8.524114 9.508813 -66.893049 0.000001 0.000003 0.000000 -17.946904 14.755000 -51.485870 8.868411 8.667038 -84.811989 0.000002 -0.000005 -0.000004 -0.000001 0.000002 -0.000000 -0.000001 0.000002 -0.000000 -0.000002 0.000002 -0.000000 0.000000 0.000004 -0.000000 0.000000 0.000003 -0.000002 0.000000 0.000004 -0.000000 -0.000002 0.000003 -0.000001 1.554702 17.541107 22.595811 -9.521266 -8.665007 17.988521 -12.394246 32.811710 16.570645 7.070927 12.751995 1.699362 -2.347704 -6.099465 10.731117 2.364216 -23.805132 -8.770005 0.000002 -0.000001 -0.000004 -0.054502 0.529481 0.740027 0.019949 -0.091321 5.078728 -0.000001 -0.000001 0.000001 0.348253 -5.918360 2.583904 1.435344 -4.203028 24.052235 0.000000 0.000001 -0.000000 1.211841 -11.756136 4.156874 1.792731 -3.772953 26.864562 -0.000001 0.000001 0.000001 2.126124 -19.166797 11.319819 3.355182 -2.132466 18.829491 0.000000 0.000002 0.000000 -0.000001 -0.000000 -0.000001 0.000000 0.000000 0.000003 -0.000001 -0.000001 0.000000 0.000002 -0.000004 0.000001 0.000002 -0.000003 0.000000 0.000002 -0.000004 0.000001 0.000002 -0.000003 0.000001 -0.000000 0.000003 -0.000002 -0.000000 0.000003 -0.000002 -0.000000 0.000003 -0.000002 -0.000000 0.000003 -0.000002 -0.000000 0.000003 -0.000002 -0.000000 0.000003 -0.000002 -0.000000 0.000003 -0.000002 0.000002 0.000001 -0.000003 -0.000001 -0.000000 0.000001 
-7.254814 86.074982 19.882143 23.816316 -40.909131 10.880171 -0.000000 -0.000001 0.000000 -57.452498 3.255714 21.740422 63.896263 6.110329 -8.151482 -14.158530 1.347632 -4.976838 -0.000000 0.000000 -0.000000 0.000001 0.000002 -0.000000 -17.706565 -8.059619 -21.710885 23.727573 -33.401452 -4.227478 22.975411 -1.115511 12.164292 0.000002 0.000000 -0.000002 -0.000000 0.000000 -0.000002 15.480721 -0.510739 -5.780029 -4.949707 1.281336 1.943964 -4.981614 1.392160 1.837898 -6.942284 1.549426 1.278262 -6.942290 1.549426 1.278269 -0.000000 0.000000 -0.000000 -6.942348 1.549451 1.278258 -6.942218 1.549384 1.278267 0.000000 0.000001 0.000000 -0.000000 0.000000 -0.000000 2.943516 -5.088615 -1.022799 -60.897181 11.114950 -16.056110 37.839412 -38.937423 29.754753 3.800456 -4.022377 6.612268 40.109951 -15.297170 -0.360490 5.639799 28.097902 11.338838 0.000002 0.000003 -0.000003 6.882256 2.840065 -61.140411 8.247985 7.640054 -89.897864 -0.000001 0.000000 -0.000003 -2.345513 4.688865 -62.655217 8.754125 9.897065 -87.051301 0.000000 -0.000001 0.000001 -9.042457 10.045658 -60.766199 8.524113 9.508809 -66.893049 -0.000000 -0.000001 0.000002 -17.946901 14.755007 -51.485867 8.868418 8.667045 -84.811989 0.000002 -0.000002 0.000002 0.000000 -0.000000 -0.000000 0.000000 -0.000000 -0.000000 -0.000000 -0.000000 0.000000 0.000001 -0.000001 0.000002 0.000001 -0.000002 0.000000 0.000001 -0.000001 0.000002 -0.000000 -0.000002 0.000001 1.277952 15.606796 24.325702 -7.344112 -15.228969 10.628460 -17.000816 15.853935 14.686353 4.943361 13.943017 7.623127 -2.282050 -6.062073 10.924236 2.299098 -23.733751 -8.717470 0.000003 0.000001 -0.000004 -0.105085 0.882585 -1.155168 0.019416 -0.091892 3.135319 0.000001 -0.000002 0.000002 0.343946 -5.788993 0.272050 1.421484 -4.152027 22.534823 -0.000002 -0.000000 0.000001 1.227472 -11.625149 1.890921 1.767291 -3.709011 25.212233 0.000002 -0.000001 -0.000000 2.196047 -19.034972 8.878923 3.387052 -1.951900 16.192290 -0.000001 -0.000000 -0.000001 -0.000000 0.000003 -0.000002 -0.000002 0.000001 -0.000002 -0.000001 0.000003 -0.000003 0.000002 0.000001 -0.000003 0.000002 0.000002 -0.000003 0.000002 0.000001 -0.000003 0.000002 0.000002 -0.000002 0.000000 -0.000001 -0.000000 0.000000 -0.000001 -0.000000 0.000000 -0.000001 -0.000000 0.000000 -0.000001 -0.000000 0.000000 -0.000001 -0.000000 0.000000 -0.000001 -0.000000 0.000000 -0.000001 -0.000000 -0.000003 -0.000003 0.000003 -0.000000 -0.000001 0.000000 
